<?xml version="1.0" standalone="no"?>
<!DOCTYPE svg PUBLIC "-//W3C//DTD SVG 20010904//EN"
 "http://www.w3.org/TR/2001/REC-SVG-20010904/DTD/svg10.dtd">
<svg version="1.0" xmlns="http://www.w3.org/2000/svg"
 width="512.000000pt" height="512.000000pt" viewBox="0 0 512.000000 512.000000"
 preserveAspectRatio="xMidYMid meet">

<g transform="translate(0.000000,512.000000) scale(0.100000,-0.100000)"
fill="#000000" stroke="none">
<path d="M1470 3723 c0 -335 3 -1084 7 -1665 l6 -1058 459 0 458 0 0 593 0
592 29 43 c16 24 32 44 36 43 5 0 108 -284 231 -631 122 -347 224 -633 226
-636 3 -2 221 -3 486 -2 l480 3 -374 1085 c-206 597 -382 1108 -391 1137 l-16
51 334 518 c184 284 336 521 337 526 2 4 -218 8 -490 8 l-493 -1 -197 -352
-198 -352 0 353 0 352 -465 0 -465 0 0 -607z"/>
</g>
</svg>
